<?xml version="1.0" encoding="UTF-8" standalone="no"?>
<!-- Created with Inkscape (http://www.inkscape.org/) -->

<svg
   width="1574.9999"
   height="375.63135"
   viewBox="0 0 416.71871 99.385794"
   version="1.1"
   id="svg1"
   xmlns:xlink="http://www.w3.org/1999/xlink"
   xmlns="http://www.w3.org/2000/svg"
   xmlns:svg="http://www.w3.org/2000/svg">
  <defs
     id="defs1">
    <linearGradient
       xlink:href="#linear-gradient"
       id="linearGradient23"
       gradientUnits="userSpaceOnUse"
       x1="286.76001"
       y1="188.87"
       x2="272.48001"
       y2="203.14999" />
    <linearGradient
       id="linear-gradient"
       x1="286.76001"
       y1="188.87"
       x2="272.48001"
       y2="203.14999"
       gradientUnits="userSpaceOnUse">
      <stop
         offset="0"
         stop-color="#5035c4"
         id="stop1" />
      <stop
         offset="1"
         stop-color="#00caf8"
         id="stop2" />
    </linearGradient>
    <linearGradient
       id="linear-gradient-2"
       x1="216.39"
       y1="279.92001"
       x2="172.69"
       y2="323.63"
       xlink:href="#linear-gradient" />
    <linearGradient
       id="linear-gradient-3"
       x1="191.36"
       y1="251.44"
       x2="191.36"
       y2="315.45999"
       xlink:href="#linear-gradient" />
    <linearGradient
       id="linear-gradient-5"
       x1="118.84"
       y1="286.44"
       x2="75.139999"
       y2="330.14001"
       xlink:href="#linear-gradient" />
    <linearGradient
       id="linear-gradient-6"
       x1="115.3"
       y1="256.09"
       x2="115.3"
       y2="320.12"
       xlink:href="#linear-gradient" />
    <linearGradient
       id="linear-gradient-7"
       x1="174.23"
       y1="338.47"
       x2="144.14999"
       y2="280.26999"
       xlink:href="#linear-gradient" />
  </defs>
  <g
     id="layer1"
     transform="translate(-1.190632,-2.6945996)">
    <g
       id="g1">
      <polygon
         class="cls-2"
         points="168.45,270.6 168.45,288.95 203.03,309.17 203.03,290.68 "
         id="polygon2"
         style="fill:url(#linearGradient23)"
         transform="matrix(1.1222843,0,0,1.1330297,-115.11169,-295.62079)" />
      <polygon
         class="cls-3"
         points="203.03,309.17 185.74,319.28 170.45,309.97 203.03,290.68 "
         id="polygon3"
         style="fill:url(#linear-gradient-2)"
         transform="matrix(1.1222843,0,0,1.1330297,-115.11169,-295.62079)" />
      <polyline
         class="cls-4"
         points="203.03 290.68 179.69 295.53 187.32 299.99 203.03 290.68"
         id="polyline3"
         style="fill:url(#linear-gradient-3)"
         transform="matrix(1.1222843,0,0,1.1330297,-115.11169,-295.62079)" />
      <polygon
         class="cls-5"
         points="138.21,324.33 138.21,305.97 103.63,285.75 103.63,304.24 "
         id="polygon4"
         style="fill:#1a99e7;fill-opacity:1"
         transform="matrix(1.1222843,0,0,1.1330297,-115.11169,-295.62079)" />
      <polygon
         class="cls-6"
         points="103.63,285.75 120.92,275.64 136.22,284.95 103.63,304.24 "
         id="polygon5"
         style="fill:url(#linear-gradient-5)"
         transform="matrix(1.1222843,0,0,1.1330297,-115.11169,-295.62079)" />
      <polyline
         class="cls-7"
         points="103.63 304.24 126.97 299.4 119.35 294.94 103.63 304.24"
         id="polyline5"
         style="fill:url(#linear-gradient-6)"
         transform="matrix(1.1222843,0,0,1.1330297,-115.11169,-295.62079)" />
      <path
         d="m 122.73402,35.087939 a 14.129559,14.264844 0 0 1 6.16135,-12.463328 q 6.18378,-4.350833 17.59741,-4.350833 11.80643,0 17.82188,4.713402 a 15.925214,16.077692 0 0 1 6.21745,13.029843 h -14.21935 a 6.5990317,6.662215 0 0 0 -2.43535,-5.404553 c -1.61608,-1.336974 -4.231,-2.016791 -7.85599,-2.016791 a 13.153172,13.279109 0 0 0 -6.83471,1.495598 4.6350343,4.6794131 0 0 0 -2.43535,4.2262 4.2085661,4.2488616 0 0 0 0.9876,2.866566 8.0580007,8.1351531 0 0 0 2.65982,1.982804 19.527746,19.714717 0 0 0 3.87188,1.325643 c 1.47019,0.351237 3.01894,0.679824 4.63503,1.008397 q 3.77088,0.736472 7.85599,1.574911 a 31.827983,32.132724 0 0 1 7.4183,2.492666 15.375295,15.522507 0 0 1 5.54409,4.532119 11.817654,11.930803 0 0 1 2.15478,7.489327 13.871435,14.004248 0 0 1 -6.07157,11.896812 q -6.08276,4.532118 -18.68602,4.475467 -12.86138,0 -19.30329,-4.758724 a 15.016164,15.159938 0 0 1 -6.43069,-12.905209 h 14.21935 q 0.72946,7.432675 11.60441,7.421345 a 15.947659,16.100352 0 0 0 7.51931,-1.450279 4.3993547,4.4414769 0 0 0 2.65981,-4.033585 4.0963376,4.1355585 0 0 0 -1.0325,-2.900556 7.8559902,7.9312084 0 0 0 -2.83937,-1.85817 24.387238,24.620737 0 0 0 -4.18613,-1.201011 c -1.59365,-0.328579 -3.25463,-0.623166 -4.99416,-0.895094 -2.45781,-0.430551 -4.97173,-0.906424 -7.51931,-1.450277 a 25.094277,25.334546 0 0 1 -6.96938,-2.537987 14.589696,14.729387 0 0 1 -5.14006,-4.634092 13.198063,13.32443 0 0 1 -1.97523,-7.670611 z"
         id="path5"
         style="fill:#ffffff;stroke-width:1.12764" />
      <path
         d="m 178.44422,15.089964 h 13.41129 v 30.807079 h 3.36686 L 205.86162,30.57848 h 16.28435 l -14.5897,20.972381 16.74449,21.606876 H 207.01757 L 195.40193,57.193349 h -3.60253 v 15.964388 h -13.35518 z"
         id="path6"
         style="fill:#ffffff;stroke-width:1.12764" />
      <path
         d="M 233.98606,88.884192 240.65244,72.670536 222.54998,30.57848 h 14.23057 l 10.25768,25.88973 10.61681,-25.88973 h 14.12956 l -24.92594,58.305712 z"
         id="path7"
         style="fill:#ffffff;stroke-width:1.12764" />
      <path
         d="M 275.5667,15.089964 H 288.978 V 73.157737 H 275.5667 Z"
         id="path8"
         style="fill:#ffffff;stroke-width:1.12764" />
      <path
         d="m 295.82394,19.452128 a 5.9144381,5.9710666 0 0 1 2.24455,-4.679413 8.1365614,8.214466 0 0 1 5.53287,-1.937481 8.01311,8.0898326 0 0 1 5.4543,1.937481 5.9144381,5.9710666 0 0 1 2.24457,4.679413 6.0042209,6.0617091 0 0 1 -2.24457,4.758725 8.0580007,8.1351531 0 0 1 -5.4543,1.926151 8.1814529,8.2597873 0 0 1 -5.53287,-1.926151 6.0042209,6.0617091 0 0 1 -2.24455,-4.758725 z m 0.9876,11.126352 h 13.42252 v 42.579257 h -13.46741 z"
         id="path9"
         style="fill:#ffffff;stroke-width:1.12764" />
      <path
         d="m 318.09005,30.57848 h 13.4113 v 6.209004 a 18.248342,18.423063 0 0 1 6.43069,-5.166616 19.819541,20.009305 0 0 1 8.68648,-1.84684 19.168615,19.352148 0 0 1 6.84593,1.133031 15.162061,15.307232 0 0 1 5.17373,3.229135 14.129559,14.264844 0 0 1 3.27707,4.917349 16.183339,16.338289 0 0 1 1.17841,6.333636 V 73.123745 H 349.64868 V 49.61338 a 7.3621848,7.432675 0 0 0 -2.30068,-5.767121 8.2151206,8.2937773 0 0 0 -5.80221,-2.141427 9.4496331,9.5401099 0 0 0 -4.05144,0.849773 10.515804,10.616488 0 0 0 -3.15363,2.266059 9.8536558,9.9480009 0 0 0 -2.065,3.229135 11.402408,11.511582 0 0 0 -0.80804,3.829641 v 21.289632 h -13.37763 z"
         id="path10"
         style="fill:#ffffff;stroke-width:1.12764" />
      <path
         d="m 382.13881,54.485408 a 9.9771072,10.072634 0 0 0 3.69232,6.175013 11.974774,12.089428 0 0 0 7.65397,2.368032 11.36874,11.477591 0 0 0 5.30842,-1.280325 10.100559,10.197268 0 0 0 3.69231,-3.149822 h 14.4887 a 17.664754,17.833888 0 0 1 -3.01896,6.288315 19.830764,20.020636 0 0 1 -5.21862,4.804046 26.01455,26.263629 0 0 1 -7.0255,3.059181 31.906543,32.212036 0 0 1 -8.4957,1.133024 28.988604,29.266159 0 0 1 -9.95465,-1.654217 23.882209,24.110873 0 0 1 -7.85599,-4.588772 21.637641,21.844813 0 0 1 -5.17373,-6.979462 20.13378,20.326554 0 0 1 -1.88543,-8.792313 20.706145,20.904399 0 0 1 6.96937,-15.862416 24.016885,24.246837 0 0 1 7.78866,-4.58877 28.629472,28.903589 0 0 1 9.89856,-1.654223 31.637194,31.940108 0 0 1 9.32618,1.325644 24.174005,24.405462 0 0 1 7.50807,3.79565 20.358237,20.55316 0 0 1 5.27474,5.880425 19.471633,19.658067 0 0 1 2.55881,7.545978 c 0.12337,1.235003 0.19083,2.164086 0.22441,2.775923 0.0329,0.611831 0,1.13303 0,1.416286 0,0.645824 0,1.314315 -0.0897,2.016795 z m 21.32341,-6.616894 a 8.3385728,8.4184115 0 0 0 -3.42297,-5.279919 12.805263,12.927869 0 0 0 -13.77043,0 9.9995533,10.095295 0 0 0 -3.69231,5.32524 z"
         id="path11"
         style="fill:#ffffff;stroke-width:1.12764" />
      <path
         d="m 267.04857,83.253032 h -6.19501 v -1.846837 h 14.58969 v 1.846837 h -6.20624 v 13.596363 h -2.24457 z"
         id="path12"
         style="fill:#ffffff;stroke-width:1.12764" />
      <path
         d="m 276.48697,91.501486 a 4.3095718,4.3508343 0 0 0 1.44775,2.696622 4.5676973,4.6114313 0 0 0 1.41407,0.81577 5.499193,5.5518457 0 0 0 1.80688,0.294595 4.6687029,4.713404 0 0 0 2.24457,-0.498534 3.4790813,3.5123923 0 0 0 1.39164,-1.235005 h 2.50269 a 4.9492738,4.9966613 0 0 1 -2.24458,2.537996 7.642756,7.7159326 0 0 1 -3.96165,0.974403 7.3285162,7.398684 0 0 1 -2.67105,-0.487259 6.935717,7.0021239 0 0 1 -2.17722,-1.314304 6.2623464,6.3223061 0 0 1 -1.47019,-1.937485 5.2971818,5.3479004 0 0 1 -0.53878,-2.379363 5.5440846,5.5971672 0 0 1 0.51622,-2.413348 6.228678,6.2883153 0 0 1 1.41406,-1.960142 6.7337058,6.7981786 0 0 1 2.13235,-1.302983 7.283625,7.353363 0 0 1 2.63736,-0.475908 8.5854756,8.6676783 0 0 1 2.58126,0.3739 6.7337058,6.7981786 0 0 1 2.07623,1.042388 5.5440846,5.5971672 0 0 1 1.44775,1.59757 4.8033769,4.8493675 0 0 1 0.65091,2.096104 4.9380511,4.9853311 0 0 1 0,0.668418 c 0,0 0,0.147259 0,0.294595 0,0.147259 0,0.351275 0,0.611816 z m 8.92216,-1.574906 a 3.2209559,3.2517954 0 0 0 -0.42642,-1.370967 3.3668528,3.3990892 0 0 0 -0.92027,-1.053724 4.1412291,4.1808798 0 0 0 -1.35797,-0.668418 5.8583241,5.9144154 0 0 0 -1.70587,-0.237916 5.1849535,5.2345976 0 0 0 -1.64976,0.260541 4.57892,4.6227615 0 0 0 -1.31307,0.702472 3.9616635,3.999595 0 0 0 -0.94273,1.053724 4.0177778,4.0562465 0 0 0 -0.52746,1.314327 z"
         id="path13"
         style="fill:#ffffff;stroke-width:1.12764" />
      <path
         d="m 289.18,90.96896 a 5.4094105,5.4612036 0 0 1 0.53878,-2.413347 6.2174548,6.2769846 0 0 1 1.47019,-1.960143 6.9132713,6.9794633 0 0 1 2.17723,-1.302982 7.4744133,7.545978 0 0 1 2.67104,-0.475909 7.9682185,8.0445113 0 0 1 2.24457,0.317221 6.8796027,6.9454723 0 0 1 1.90788,0.872434 5.9032154,5.9597365 0 0 1 1.44774,1.348303 4.9717196,5.019322 0 0 1 0.85294,1.699547 h -2.35679 a 3.6923153,3.7276679 0 0 0 -1.49264,-1.722203 4.646257,4.6907432 0 0 0 -2.54759,-0.691198 4.994165,5.0419823 0 0 0 -1.9191,0.362549 4.3320176,4.3734951 0 0 0 -1.47019,0.963082 4.0626692,4.1015677 0 0 0 -0.9315,1.382281 4.1861204,4.226201 0 0 0 -0.32554,1.620242 4.0290006,4.0675768 0 0 0 0.32554,1.597578 4.1748976,4.2148707 0 0 0 0.9315,1.382288 4.4891371,4.5321189 0 0 0 1.47019,0.951746 4.7921539,4.838037 0 0 0 1.9191,0.362549 4.7248169,4.7700552 0 0 0 2.54759,-0.668418 3.7259839,3.7616588 0 0 0 1.49264,-1.710868 h 2.37923 a 5.1849535,5.2345976 0 0 1 -0.85296,1.699532 5.6114212,5.6651485 0 0 1 -1.44774,1.325655 7.2275107,7.2967114 0 0 1 -1.90789,0.872426 7.9682185,8.0445113 0 0 1 -2.24457,0.305869 7.2387338,7.308042 0 0 1 -2.67103,-0.487259 6.935717,7.0021239 0 0 1 -2.23335,-1.32564 6.2623464,6.3223061 0 0 1 -1.47019,-1.937478 5.2971818,5.3479004 0 0 1 -0.50497,-2.368034 z"
         id="path14"
         style="fill:#ffffff;stroke-width:1.12764" />
      <path
         d="m 304.90321,80.250502 h 2.065 v 7.092769 a 5.3869647,5.4385429 0 0 1 2.06501,-1.824173 6.1725636,6.2316636 0 0 1 2.90672,-0.679847 5.431856,5.483864 0 0 1 1.99765,0.339924 4.6911483,4.7360643 0 0 1 1.4702,0.906434 3.8269894,3.8636314 0 0 1 0.92028,1.382288 4.7023714,4.7473949 0 0 1 0.30297,1.722211 v 7.715935 h -2.18842 v -7.353332 a 2.7271509,2.7532624 0 0 0 -0.84172,-2.209402 3.4678585,3.501062 0 0 0 -2.33436,-0.759151 3.7259839,3.7616588 0 0 0 -1.66098,0.385251 4.646257,4.6907432 0 0 0 -1.32429,0.99706 4.9156053,4.9626704 0 0 0 -0.90905,1.359639 4.3095718,4.3508343 0 0 0 -0.38168,1.518257 v 6.050381 h -2.065 z"
         id="path15"
         style="fill:#ffffff;stroke-width:1.12764" />
      <path
         d="m 320.11016,85.077213 h 2.06501 v 2.266058 a 5.3869647,5.4385429 0 0 1 2.065,-1.824173 6.2174548,6.2769846 0 0 1 2.91794,-0.679847 5.5216389,5.5745065 0 0 1 1.99767,0.339924 4.6911483,4.7360643 0 0 1 1.47018,0.906434 3.6586468,3.693677 0 0 1 0.90906,1.382288 4.4891371,4.5321189 0 0 1 0.31422,1.722211 v 7.715935 h -2.06498 V 89.55268 a 2.6261452,2.6512895 0 0 0 -0.9315,-2.198089 3.714761,3.7503285 0 0 0 -2.39046,-0.759152 3.8045438,3.8409709 0 0 0 -1.67221,0.385252 4.8033769,4.8493675 0 0 0 -1.3243,0.99706 4.870714,4.9173493 0 0 0 -0.89782,1.359639 4.3320176,4.3734951 0 0 0 -0.39277,1.518265 v 6.050373 h -2.065 z"
         id="path16"
         style="fill:#ffffff;stroke-width:1.12764" />
      <path
         d="m 334.29584,90.96896 a 5.4094105,5.4612036 0 0 1 0.53878,-2.413347 6.2174548,6.2769846 0 0 1 1.47019,-1.960143 6.9132713,6.9794633 0 0 1 2.17722,-1.302982 7.8559902,7.9312084 0 0 1 5.34208,0 6.9132713,6.9794633 0 0 1 2.17724,1.302982 6.2174548,6.2769846 0 0 1 1.47019,1.960143 5.4094105,5.4612036 0 0 1 0.5387,2.413347 5.2971818,5.3479004 0 0 1 -0.5387,2.379371 6.2623464,6.3223061 0 0 1 -1.47019,1.937478 6.935717,7.0021239 0 0 1 -2.17724,1.314311 7.6315331,7.7046022 0 0 1 -5.34208,0 6.935717,7.0021239 0 0 1 -2.17722,-1.314311 6.2623464,6.3223061 0 0 1 -1.47019,-1.937478 5.2971818,5.3479004 0 0 1 -0.53878,-2.379371 z m 2.24456,0 a 4.0177778,4.0562465 0 0 0 0.31421,1.597578 4.1748976,4.2148707 0 0 0 0.93149,1.382296 4.6013658,4.6454222 0 0 0 1.47019,0.951739 5.3084049,5.359231 0 0 0 3.83821,0 4.3095718,4.3508343 0 0 0 1.45898,-0.951739 4.4891371,4.5321189 0 0 0 0.92026,-1.382296 4.0177778,4.0562465 0 0 0 0.31422,-1.597578 4.1748976,4.2148707 0 0 0 -0.31422,-1.620226 4.3881315,4.4301463 0 0 0 -0.92026,-1.382296 4.1748976,4.2148707 0 0 0 -1.45898,-0.963075 5.3084049,5.359231 0 0 0 -3.83821,0 4.4891371,4.5321189 0 0 0 -1.47019,0.963075 4.0626692,4.1015677 0 0 0 -0.93149,1.382296 4.1748976,4.2148707 0 0 0 -0.3367,1.620226 z"
         id="path17"
         style="fill:#ffffff;stroke-width:1.12764" />
      <path
         d="m 350.45674,80.250502 h 2.06499 v 16.632885 h -2.06499 z"
         id="path18"
         style="fill:#ffffff;stroke-width:1.12764" />
      <path
         d="m 354.97953,90.96896 a 5.2522906,5.3025794 0 0 1 0.53871,-2.413347 6.0491122,6.1070302 0 0 1 1.4702,-1.960143 6.7337058,6.7981786 0 0 1 2.17723,-1.302982 7.777431,7.8518971 0 0 1 5.33086,0 6.7337058,6.7981786 0 0 1 2.17722,1.302982 6.2511234,6.3109756 0 0 1 1.48142,1.960143 5.4094105,5.4612036 0 0 1 0.53878,2.413347 5.2971818,5.3479004 0 0 1 -0.53878,2.379371 6.296015,6.356297 0 0 1 -1.48142,1.937478 6.8122657,6.8774906 0 0 1 -2.17722,1.314311 7.5978651,7.6706119 0 0 1 -5.33086,0 6.8122657,6.8774906 0 0 1 -2.17723,-1.314311 6.0940038,6.1523516 0 0 1 -1.4702,-1.937478 5.151285,5.2006066 0 0 1 -0.53871,-2.379371 z m 2.24458,0 a 4.0290006,4.0675768 0 0 0 0.32553,1.597578 4.1524519,4.19221 0 0 0 0.92028,1.382296 4.6013658,4.6454222 0 0 0 1.47019,0.951739 5.3420734,5.3932218 0 0 0 3.84944,0 4.4891371,4.5321189 0 0 0 1.45897,-0.951739 4.298349,4.3395041 0 0 0 0.90904,-1.382296 4.0290006,4.0675768 0 0 0 0.32553,-1.597578 4.2759032,4.3168434 0 0 0 -1.23451,-3.002522 4.3881315,4.4301463 0 0 0 -1.45897,-0.963075 5.3420734,5.3932218 0 0 0 -3.84943,0 4.4891371,4.5321189 0 0 0 -1.47019,0.963075 4.0402234,4.0789071 0 0 0 -0.92028,1.382296 4.1861204,4.226201 0 0 0 -0.35911,1.620226 z"
         id="path19"
         style="fill:#ffffff;stroke-width:1.12764" />
      <path
         d="m 383.62022,96.40751 a 5.218622,5.2685883 0 0 1 -1.64974,4.2262 7.3060708,7.3760238 0 0 1 -4.87072,1.42762 10.156673,10.25392 0 0 1 -2.76082,-0.31722 5.5216389,5.5745065 0 0 1 -1.80687,-0.84977 3.3668528,3.3990892 0 0 1 -1.03251,-1.133041 3.8494352,3.8862921 0 0 1 -0.41526,-1.302983 h 2.24456 a 1.9752203,1.9941323 0 0 0 0.46015,0.89509 2.7383737,2.7645926 0 0 0 0.84172,0.589113 4.1861204,4.226201 0 0 0 1.12227,0.317301 8.4620234,8.5430441 0 0 0 1.32431,0.0906 c 2.9965,0 4.48914,-1.291658 4.48914,-3.897624 v -1.620234 a 5.1176165,5.1666157 0 0 1 -1.89667,1.540921 6.8571569,6.9228116 0 0 1 -2.95161,0.566488 7.1826194,7.2513904 0 0 1 -2.62614,-0.475908 6.5316947,6.5942332 0 0 1 -2.08745,-1.291655 6.2847918,6.3449664 0 0 1 -1.3804,-1.903486 5.3308504,5.3818913 0 0 1 -0.50498,-2.266058 5.4655245,5.5178549 0 0 1 0.50498,-2.368027 6.1164493,6.175012 0 0 1 1.3804,-1.926165 6.5316947,6.5942332 0 0 1 2.08745,-1.291655 7.1826194,7.2513904 0 0 1 2.62614,-0.475908 6.8571569,6.9228116 0 0 1 2.95161,0.566488 5.0615021,5.1099641 0 0 1 1.89667,1.563585 v -1.994134 h 2.06499 z m -11.32384,-5.495199 a 3.860658,3.8976224 0 0 0 0.32553,1.552258 3.714761,3.7503285 0 0 0 0.92028,1.325647 4.3207944,4.3621645 0 0 0 1.47019,0.929075 5.3981875,5.4498731 0 0 0 1.95278,0.351274 5.0053881,5.0533129 0 0 0 1.73954,-0.283243 4.7472626,4.7927159 0 0 0 1.3804,-0.736449 3.9167722,3.9542738 0 0 0 0.97639,-1.133022 3.2770702,3.3084469 0 0 0 0.4938,-1.348311 v -1.370936 a 3.9728864,4.0109253 0 0 0 -0.52738,-1.438945 4.0851149,4.1242283 0 0 0 -0.98762,-1.133036 5.0278336,5.0759732 0 0 0 -1.38041,-0.725098 5.2073993,5.2572582 0 0 0 -1.69465,-0.27197 5.3981875,5.4498731 0 0 0 -1.95277,0.351275 4.3432403,4.3848252 0 0 0 -1.4702,0.940419 3.9055493,3.9429435 0 0 0 -0.92027,1.348303 4.0290006,4.0675768 0 0 0 -0.32554,1.608906 z"
         id="path20"
         style="fill:#ffffff;stroke-width:1.12764" />
      <path
         d="m 386.60551,81.383531 a 1.2457355,1.257663 0 0 1 0.43766,-0.974403 1.6048666,1.6202326 0 0 1 1.12229,-0.396526 1.571198,1.5862416 0 0 1 1.12228,0.396526 1.2457355,1.257663 0 0 1 0.43767,0.974403 1.2232899,1.2350025 0 0 1 -0.43767,0.963083 1.571198,1.5862416 0 0 1 -1.12228,0.396526 1.6048666,1.6202326 0 0 1 -1.12229,-0.396526 1.2232899,1.2350025 0 0 1 -0.43766,-0.963083 z m 0.49381,3.671018 h 2.06501 v 11.828838 h -2.06501 z"
         id="path21"
         style="fill:#ffffff;stroke-width:1.12764" />
      <path
         d="m 393.79935,91.501486 a 4.2759032,4.3168434 0 0 0 0.48264,1.484273 4.0290006,4.0675768 0 0 0 0.96514,1.212349 4.5676973,4.6114313 0 0 0 1.41409,0.81577 5.499193,5.5518457 0 0 0 1.80687,0.294595 4.6687029,4.713404 0 0 0 2.24457,-0.498534 3.5127498,3.5463831 0 0 0 1.40286,-1.235005 h 2.49147 a 4.9043826,4.9513403 0 0 1 -2.24458,2.537996 7.6203102,7.6932719 0 0 1 -3.96167,0.974403 7.3285162,7.398684 0 0 1 -2.67103,-0.487259 6.935717,7.0021239 0 0 1 -2.1099,-1.32564 6.4419118,6.5035908 0 0 1 -1.45896,-1.926149 5.2971818,5.3479004 0 0 1 -0.53878,-2.379363 5.5440846,5.5971672 0 0 1 0.51621,-2.413348 6.228678,6.2883153 0 0 1 1.41409,-1.960142 6.7337058,6.7981786 0 0 1 2.13233,-1.302983 7.3060708,7.3760238 0 0 1 2.64859,-0.475908 8.5742517,8.656347 0 0 1 2.57004,0.3739 6.6663688,6.7301968 0 0 1 2.07622,1.042388 5.5440846,5.5971672 0 0 1 1.44776,1.59757 4.8033769,4.8493675 0 0 1 0.65091,2.096104 4.9380511,4.9853311 0 0 1 0.0558,0.668418 c 0,0 0,0.147259 0,0.294595 0,0.147259 0,0.351275 0,0.611816 z m 8.97827,-1.574906 a 3.2209559,3.2517954 0 0 0 -0.42642,-1.370967 3.3668528,3.3990892 0 0 0 -0.92028,-1.053724 4.1412291,4.1808798 0 0 0 -1.35795,-0.668418 5.779764,5.8351031 0 0 0 -1.69465,-0.237916 5.2073993,5.2572582 0 0 0 -1.66098,0.260541 4.57892,4.6227615 0 0 0 -1.31309,0.702472 4.3993547,4.4414769 0 0 0 -0.94271,1.053724 4.0177778,4.0562465 0 0 0 -0.52746,1.314327 z"
         id="path22"
         style="fill:#ffffff;stroke-width:1.12764" />
      <path
         d="m 407.03108,88.283689 a 2.9067163,2.9345471 0 0 1 1.3243,-2.52666 6.2623464,6.3223061 0 0 1 3.62498,-0.940411 6.3521289,6.4129482 0 0 1 3.61374,0.929075 3.0975046,3.127162 0 0 1 1.41409,2.537996 h -2.18846 a 1.571198,1.5862416 0 0 0 -0.7856,-1.257662 3.5351956,3.5690438 0 0 0 -1.93033,-0.475908 c -1.9191,0 -2.88426,0.555213 -2.88426,1.665555 a 1.2345127,1.2463327 0 0 0 0.34794,0.929082 2.7271509,2.7532624 0 0 0 0.92027,0.566488 7.0254995,7.0927661 0 0 0 1.30185,0.351275 l 1.48142,0.294595 c 0.4938,0.10193 0.98761,0.21529 1.4814,0.351274 a 5.2971818,5.3479004 0 0 1 1.30186,0.566488 2.8506022,2.8778956 0 0 1 0.92028,0.917746 2.5475854,2.5719776 0 0 1 0.34794,1.382296 2.8954934,2.9232167 0 0 1 -1.35796,2.560645 6.6327003,6.696206 0 0 1 -3.78209,0.929091 9.2925133,9.3814857 0 0 1 -2.24457,-0.249344 5.779764,5.8351031 0 0 1 -1.70588,-0.713824 3.2658473,3.2971166 0 0 1 -1.12228,-1.133029 2.715928,2.741932 0 0 1 -0.3816,-1.438944 h 2.24457 c 0.24698,1.133029 1.34674,1.756188 3.36686,1.756188 2.02011,0 2.82815,-0.521159 2.82815,-1.574898 a 1.1896213,1.2010115 0 0 0 -0.60609,-1.133037 4.9380511,4.9853311 0 0 0 -1.49264,-0.566487 c -0.59477,-0.147259 -1.24573,-0.260541 -1.94155,-0.373901 a 8.5854756,8.6676783 0 0 1 -1.95276,-0.521159 3.8943265,3.9316133 0 0 1 -1.49264,-1.031059 2.6261452,2.6512895 0 0 1 -0.65091,-1.801502 z"
         id="path23"
         style="fill:#ffffff;stroke-width:1.12764" />
      <polygon
         class="cls-8"
         points="147.31,332.79 136.97,332.79 159.36,263.29 169.7,263.29 "
         id="polygon23"
         style="fill:url(#linear-gradient-7)"
         transform="matrix(1.1222843,0,0,1.1330297,-115.11169,-295.62079)" />
    </g>
  </g>
</svg>
